<?xml version="1.0" encoding="UTF-8" standalone="no"?>
<!-- Uploaded to: SVG Repo, www.svgrepo.com, Transformed by: SVG Repo Mixer Tools -->

<svg
   version="1.1"
   id="Layer_1"
   viewBox="0 0 512 512"
   xml:space="preserve"
   width="800px"
   height="800px"
   fill="#000000"
   sodipodi:docname="1.svg"
   inkscape:version="1.2.2 (732a01da63, 2022-12-09)"
   xmlns:inkscape="http://www.inkscape.org/namespaces/inkscape"
   xmlns:sodipodi="http://sodipodi.sourceforge.net/DTD/sodipodi-0.dtd"
   xmlns="http://www.w3.org/2000/svg"
   xmlns:svg="http://www.w3.org/2000/svg"><defs
   id="defs1759" /><sodipodi:namedview
   id="namedview1757"
   pagecolor="#ffffff"
   bordercolor="#000000"
   borderopacity="0.25"
   inkscape:showpageshadow="2"
   inkscape:pageopacity="0.0"
   inkscape:pagecheckerboard="0"
   inkscape:deskcolor="#d1d1d1"
   showgrid="false"
   inkscape:zoom="1.095"
   inkscape:cx="400"
   inkscape:cy="400.45662"
   inkscape:window-width="2560"
   inkscape:window-height="1361"
   inkscape:window-x="2391"
   inkscape:window-y="-9"
   inkscape:window-maximized="1"
   inkscape:current-layer="Layer_1" />

<g
   id="SVGRepo_bgCarrier"
   stroke-width="0" />

<g
   id="SVGRepo_tracerCarrier"
   stroke-linecap="round"
   stroke-linejoin="round" />

<g
   id="SVGRepo_iconCarrier"
   transform="matrix(1.1232878,0,0,1.154112,-31.56159,-52.60351)">   <rect
   x="28.444"
   y="241.778"
   style="fill:#ffedb5"
   width="455.11099"
   height="28.444"
   id="rect1731" /> <rect
   x="254.569"
   y="241.778"
   style="fill:#ffedb5"
   width="228.98599"
   height="28.444"
   id="rect1733" /> <rect
   x="142.222"
   y="241.778"
   style="fill:#ffc61b"
   width="56.889"
   height="28.444"
   id="rect1735" /> <rect
   x="312.88901"
   y="241.778"
   style="fill:#ffc61b"
   width="56.889"
   height="28.444"
   id="rect1737" /> <g
   id="g1745"> <path
   style="fill:#dddde0"
   d="m 70.789,341.333 h -4.956 c -6.485,0 -11.743,-5.258 -11.743,-11.743 V 182.412 c 0,-6.485 5.258,-11.743 11.743,-11.743 h 4.956 c 6.485,0 11.743,5.258 11.743,11.743 V 329.59 c 0,6.485 -5.258,11.743 -11.743,11.743 z"
   id="path1739" /> <path
   style="fill:#dddde0"
   d="m 102.25,341.333 h -4.956 c -6.485,0 -11.743,-5.258 -11.743,-11.743 V 182.412 c 0,-6.485 5.258,-11.743 11.743,-11.743 h 4.956 c 6.485,0 11.743,5.258 11.743,11.743 V 329.59 c 0,6.485 -5.258,11.743 -11.743,11.743 z"
   id="path1741" /> <path
   style="fill:#dddde0"
   d="m 133.28,341.333 h -4.956 c -6.485,0 -11.743,-5.258 -11.743,-11.743 V 182.412 c 0,-6.485 5.258,-11.743 11.743,-11.743 h 4.956 c 6.485,0 11.743,5.258 11.743,11.743 V 329.59 c 0.001,6.485 -5.257,11.743 -11.743,11.743 z"
   id="path1743" /> </g> <g
   id="g1753"> <path
   style="fill:#dddde0"
   d="m 383.678,341.333 h -4.956 c -6.485,0 -11.743,-5.258 -11.743,-11.743 V 182.412 c 0,-6.485 5.258,-11.743 11.743,-11.743 h 4.956 c 6.485,0 11.743,5.258 11.743,11.743 V 329.59 c 0,6.485 -5.258,11.743 -11.743,11.743 z"
   id="path1747" /> <path
   style="fill:#dddde0"
   d="m 415.139,341.333 h -4.956 c -6.485,0 -11.743,-5.258 -11.743,-11.743 V 182.412 c 0,-6.485 5.258,-11.743 11.743,-11.743 h 4.956 c 6.485,0 11.743,5.258 11.743,11.743 V 329.59 c 0,6.485 -5.258,11.743 -11.743,11.743 z"
   id="path1749" /> <path
   style="fill:#dddde0"
   d="m 446.169,341.333 h -4.956 c -6.485,0 -11.743,-5.258 -11.743,-11.743 V 182.412 c 0,-6.485 5.258,-11.743 11.743,-11.743 h 4.956 c 6.485,0 11.743,5.258 11.743,11.743 V 329.59 c 0,6.485 -5.257,11.743 -11.743,11.743 z"
   id="path1751" /> </g> </g>

</svg>
